<?xml version="1.0" encoding="UTF-8" standalone="no"?>
<svg
   xmlns:dc="http://purl.org/dc/elements/1.1/"
   xmlns:cc="http://creativecommons.org/ns#"
   xmlns:rdf="http://www.w3.org/1999/02/22-rdf-syntax-ns#"
   xmlns:svg="http://www.w3.org/2000/svg"
   xmlns="http://www.w3.org/2000/svg"
   xmlns:sodipodi="http://sodipodi.sourceforge.net/DTD/sodipodi-0.dtd"
   xmlns:inkscape="http://www.inkscape.org/namespaces/inkscape"
   width="24in"
   height="18in"
   viewBox="0 0 24 18"
   version="1.1"
   id="svg8"
   inkscape:version="1.0.1 (3bc2e813f5, 2020-09-07)"
   sodipodi:docname="LaserCutterDesign-v1.svg">
  <title
     id="title1494">LaserCutterDesign-v1</title>
  <defs
     id="defs2">
    <rect
       x="8.3528337"
       y="18.05846"
       width="8.2558478"
       height="4.6731214"
       id="rect1217" />
    <rect
       x="6.5"
       y="17"
       width="5.2"
       height="3.2"
       id="rect1201" />
    <rect
       x="7.5"
       y="21"
       width="11.5"
       height="2"
       id="rect1106" />
    <rect
       x="2"
       y="14"
       width="6"
       height="1"
       id="rect1100" />
    <rect
       x="7.5"
       y="21"
       width="3.4994083"
       height="1.0189347"
       id="rect1106-8" />
    <rect
       x="7.5"
       y="21"
       width="11.5"
       height="2"
       id="rect1119" />
    <rect
       x="7.5"
       y="21"
       width="3.4994082"
       height="1.0189347"
       id="rect1106-8-8" />
    <rect
       x="7.5"
       y="21"
       width="3.4994082"
       height="1.0189347"
       id="rect1148" />
    <rect
       x="7.5"
       y="21"
       width="3.4994082"
       height="1.0189347"
       id="rect1106-8-3" />
    <rect
       x="7.5"
       y="21"
       width="3.4994082"
       height="1.0189347"
       id="rect1178" />
    <rect
       x="7.5"
       y="21"
       width="3.4994082"
       height="1.0189347"
       id="rect1106-8-6" />
    <rect
       x="7.5"
       y="21"
       width="3.4994082"
       height="1.0189347"
       id="rect1230" />
    <rect
       x="7.5"
       y="21"
       width="3.4994082"
       height="1.0189347"
       id="rect1106-8-6-3" />
    <rect
       x="7.5"
       y="21"
       width="3.4994082"
       height="1.0189347"
       id="rect1259" />
    <rect
       x="7.5"
       y="21"
       width="3.4994082"
       height="1.0189347"
       id="rect1106-8-6-3-2" />
    <rect
       x="7.5"
       y="21"
       width="3.4994082"
       height="1.0189347"
       id="rect1309" />
    <rect
       x="7.5"
       y="21"
       width="3.4994082"
       height="1.0189347"
       id="rect1106-8-6-2" />
    <rect
       x="7.5"
       y="21"
       width="3.4994082"
       height="1.0189347"
       id="rect1348" />
    <rect
       x="7.5"
       y="21"
       width="3.4994082"
       height="1.0189347"
       id="rect1106-8-6-27" />
    <rect
       x="7.5"
       y="21"
       width="3.4994082"
       height="1.0189347"
       id="rect1348-8" />
    <rect
       x="7.5"
       y="21"
       width="3.4994082"
       height="1.0189347"
       id="rect1106-8-6-8" />
    <rect
       x="7.5"
       y="21"
       width="3.4994082"
       height="1.0189347"
       id="rect1348-7" />
    <rect
       x="7.5"
       y="21"
       width="3.4994082"
       height="1.0189347"
       id="rect1106-8-6-3-4" />
    <rect
       x="7.5"
       y="21"
       width="3.4994082"
       height="1.0189347"
       id="rect955" />
  </defs>
  <sodipodi:namedview
     id="base"
     pagecolor="#e1e1e1"
     bordercolor="#666666"
     borderopacity="1.0"
     inkscape:pageopacity="0.1254902"
     inkscape:pageshadow="2"
     inkscape:zoom="0.48897633"
     inkscape:cx="1152"
     inkscape:cy="864"
     inkscape:document-units="in"
     inkscape:current-layer="layer1"
     inkscape:document-rotation="0"
     showgrid="true"
     inkscape:pagecheckerboard="false"
     borderlayer="false"
     inkscape:showpageshadow="false"
     showborder="true"
     units="in"
     inkscape:window-width="1920"
     inkscape:window-height="1017"
     inkscape:window-x="-8"
     inkscape:window-y="502"
     inkscape:window-maximized="1">
    <inkscape:grid
       type="xygrid"
       id="grid973"
       dotted="true"
       originx="0"
       originy="0"
       units="in"
       spacingx="0.1"
       spacingy="0.1"
       visible="true"
       snapvisiblegridlinesonly="true"
       color="#feff3f"
       opacity="0.1254902"
       empspacing="5" />
  </sodipodi:namedview>
  <metadata
     id="metadata5">
    <rdf:RDF>
      <cc:Work
         rdf:about="">
        <dc:format>image/svg+xml</dc:format>
        <dc:type
           rdf:resource="http://purl.org/dc/dcmitype/StillImage" />
        <dc:title>LaserCutterDesign-v1</dc:title>
      </cc:Work>
    </rdf:RDF>
  </metadata>
  <g
     inkscape:label="Layer 1"
     inkscape:groupmode="layer"
     id="layer1">
    <rect
       style="fill:none;stroke:#ff0000;stroke-width:0.00104167;stroke-miterlimit:4;stroke-dasharray:none"
       id="rect837"
       width="24"
       height="18"
       x="0"
       y="0"
       ry="0.59414399"
       sodipodi:insensitive="true" />
    <path
       style="fill:#000000;fill-opacity:1;stroke:none;stroke-width:0;stroke-miterlimit:4;stroke-dasharray:none;stroke-opacity:1"
       d="m 11.434079,17.005923 c -0.198828,-0.01096 -0.386288,-0.0787 -0.546785,-0.19768 -0.0237,-0.01756 -0.05519,-0.04358 -0.079,-0.06523 -0.01697,-0.01544 -0.05646,-0.05548 -0.0722,-0.07322 -0.166007,-0.186992 -0.255649,-0.422066 -0.255627,-0.670347 2.2e-5,-0.249702 0.08948,-0.483503 0.257277,-0.672446 0.01289,-0.01452 0.05877,-0.06075 0.07309,-0.07364 0.16709,-0.150495 0.371351,-0.239668 0.591718,-0.258325 0.05436,-0.0047 0.117117,-0.0047 0.171475,0 0.210786,0.01783 0.409448,0.101357 0.570704,0.239869 0.02076,0.01782 0.03053,0.027 0.05681,0.05333 0.02687,0.02692 0.03976,0.04091 0.06044,0.06566 0.174453,0.208601 0.256465,0.476517 0.229004,0.748098 -0.02058,0.203493 -0.10324,0.396206 -0.236882,0.552247 -0.02261,0.0264 -0.0614,0.06652 -0.08583,0.08876 -0.10713,0.09756 -0.230936,0.169952 -0.366885,0.214512 -0.08438,0.02765 -0.170204,0.04357 -0.261413,0.04847 -0.01846,9.76e-4 -0.08735,9.76e-4 -0.105906,-7.9e-5 z m 0.10213,-0.08481 c 0.176625,-0.0096 0.343169,-0.06778 0.486199,-0.169671 l 0.01254,-0.009 -0.0032,-5.56e-4 c -0.02232,-0.0038 -0.03245,-0.0066 -0.04724,-0.01374 -0.03616,-0.01734 -0.06267,-0.04743 -0.07151,-0.0813 -0.0068,-0.02631 -0.0031,-0.05685 0.01142,-0.09391 0.03133,-0.07975 0.111044,-0.177734 0.197198,-0.242417 0.02958,-0.0222 0.0556,-0.03741 0.105218,-0.06153 0.04654,-0.0226 0.07362,-0.03094 0.08422,-0.02592 0.0038,0.0017 0.0062,0.0049 0.0062,0.0081 0,0.0078 -0.0073,0.0137 -0.04955,0.0393 -0.05038,0.03059 -0.07961,0.05002 -0.106804,0.07098 -0.06256,0.04823 -0.132447,0.130935 -0.164114,0.194256 -0.02664,0.05326 -0.02933,0.09392 -0.0084,0.126083 0.01345,0.0206 0.03302,0.03185 0.06075,0.03488 0.01265,0.0013 0.02696,-1.78e-4 0.04333,-0.0048 l 0.0076,-0.0021 0.01289,-0.01185 c 0.06079,-0.05586 0.115497,-0.121933 0.159564,-0.192639 0.01192,-0.01913 0.03217,-0.05474 0.02963,-0.05212 -4.47e-4,4.61e-4 -0.0053,0.0068 -0.01071,0.01427 -0.02889,0.03915 -0.06035,0.07677 -0.08736,0.104508 -0.0307,0.03152 -0.05804,0.05183 -0.07821,0.0581 -0.0067,0.002 -0.01763,0.0026 -0.02243,9.77e-4 -0.0047,-0.0015 -0.0088,-0.0066 -0.0095,-0.01154 -0.0017,-0.01118 0.0022,-0.0264 0.01265,-0.0473 0.03263,-0.06652 0.115764,-0.166927 0.188711,-0.227913 0.01508,-0.01261 0.03113,-0.02858 0.03834,-0.03811 0.01468,-0.01946 0.02238,-0.04491 0.01849,-0.06133 -0.0031,-0.01321 -0.01026,-0.02102 -0.0237,-0.02598 -0.0074,-0.0027 -0.02186,-0.0026 -0.03461,4.02e-4 -0.02451,0.0057 -0.05343,0.01678 -0.111419,0.04258 -0.0096,0.0044 -0.0177,0.0076 -0.01797,0.0072 -2.7e-4,-2.69e-4 0.0011,-0.0035 0.003,-0.0071 0.0018,-0.0037 0.0071,-0.01373 0.01142,-0.02251 0.02621,-0.05341 0.04129,-0.102742 0.04803,-0.157184 0.0018,-0.01467 0.0026,-0.05774 0.0012,-0.07414 -0.0042,-0.05314 -0.01669,-0.09979 -0.04732,-0.176347 -0.02168,-0.05424 -0.02688,-0.07202 -0.02699,-0.09246 -1.13e-4,-0.02049 0.006,-0.03401 0.02105,-0.04589 0.01517,-0.01205 0.0286,-0.01635 0.05405,-0.01729 0.02172,-8.46e-4 0.04655,0.0019 0.08574,0.0094 0.03452,0.0066 0.04216,0.0081 0.04249,0.0077 1.7e-4,-1.71e-4 -0.0067,-0.0044 -0.0154,-0.0093 -0.0952,-0.05425 -0.179692,-0.08696 -0.251085,-0.09722 -0.03745,-0.0054 -0.07683,-0.0046 -0.108435,0.0024 -0.0433,0.0095 -0.08216,0.0298 -0.121418,0.06326 -0.0113,0.0096 -0.03878,0.03711 -0.05182,0.05181 -0.0056,0.0062 -0.01912,0.02195 -0.03018,0.03488 -0.01107,0.01295 -0.02465,0.02865 -0.03016,0.03488 -0.01424,0.01609 -0.03904,0.04065 -0.04319,0.04276 -0.0059,0.0031 -0.01281,0.0045 -0.025,0.0049 -0.03289,0.0012 -0.07874,-0.01005 -0.09917,-0.02452 -0.01346,-0.0095 -0.03234,-0.04648 -0.04107,-0.08028 -0.0046,-0.01718 -0.0059,-0.02866 -0.0059,-0.04665 -3.1e-5,-0.01049 3.72e-4,-0.01919 10e-4,-0.02311 0.0028,-0.01594 0.0081,-0.0307 0.01494,-0.04209 0.0079,-0.01315 0.02669,-0.03461 0.05173,-0.05923 0.07251,-0.0713 0.157387,-0.126991 0.240935,-0.1581 0.03989,-0.01484 0.08173,-0.02418 0.1223,-0.02727 0.01642,-0.0012 0.0539,-5.5e-4 0.06869,0.0012 0.05067,0.0063 0.09668,0.02157 0.141423,0.04697 0.0046,0.0026 0.0082,0.0046 0.0082,0.0042 0,-8.46e-4 -0.02239,-0.02514 -0.03657,-0.03965 -0.06873,-0.07032 -0.150037,-0.130233 -0.238721,-0.175892 -0.104695,-0.05389 -0.220819,-0.08741 -0.338744,-0.09778 -0.05178,-0.0046 -0.110451,-0.0046 -0.162229,0 -0.230942,0.02028 -0.446031,0.12753 -0.602891,0.300589 -0.0062,0.0067 -0.01118,0.01248 -0.01118,0.01272 0,2.41e-4 0.0035,-0.0013 0.0073,-0.0038 0.04368,-0.02513 0.09225,-0.04135 0.141843,-0.04738 0.01503,-0.0018 0.05222,-0.0024 0.06849,-0.0012 0.08252,0.0063 0.16542,0.03713 0.249646,0.09293 0.055,0.03644 0.111756,0.08598 0.149273,0.130313 0.0185,0.02187 0.02669,0.03841 0.03075,0.06221 0.0022,0.01337 0.0018,0.04026 -8.45e-4,0.05464 -0.0022,0.01185 -0.0067,0.02822 -0.0106,0.03878 -0.0066,0.01806 -0.01929,0.04167 -0.02796,0.05232 -0.0092,0.01142 -0.04005,0.02318 -0.07414,0.02842 -0.01338,0.0019 -0.03945,0.0019 -0.04685,5.5e-5 -0.009,-0.0024 -0.01177,-0.0046 -0.02714,-0.01986 -0.01633,-0.01631 -0.02505,-0.02602 -0.05503,-0.06105 -0.01107,-0.01295 -0.02465,-0.02865 -0.03018,-0.03488 -0.01302,-0.01469 -0.04052,-0.04219 -0.05182,-0.05182 -0.04511,-0.03839 -0.08778,-0.05862 -0.140749,-0.06673 -0.01501,-0.0022 -0.04794,-0.0031 -0.06536,-0.0017 -0.06078,0.005 -0.126852,0.0254 -0.206117,0.0635 -0.0307,0.01474 -0.07672,0.04009 -0.07775,0.0428 -3.72e-4,9.76e-4 -6.04e-4,0.0018 -5.01e-4,0.0019 9.7e-5,1.12e-4 0.01096,-0.0018 0.02407,-0.0046 0.05058,-0.0097 0.07318,-0.01262 0.09702,-0.01189 0.02692,8.47e-4 0.04141,0.0056 0.05713,0.01881 0.01482,0.01248 0.02127,0.02996 0.01903,0.05147 -0.0019,0.01867 -0.0072,0.03546 -0.02502,0.08034 -0.01727,0.04346 -0.02234,0.0573 -0.0298,0.08141 -0.02947,0.09522 -0.02745,0.183121 0.0064,0.276667 0.0081,0.02227 0.02302,0.05522 0.03543,0.07798 0.0017,0.0031 0.0029,0.0059 0.0027,0.0062 -2.69e-4,2.69e-4 -0.01154,-0.0046 -0.02513,-0.01049 -0.05293,-0.02349 -0.08262,-0.03466 -0.105755,-0.03981 -0.01192,-0.0027 -0.02587,-0.0027 -0.03313,-9e-6 -0.01391,0.0051 -0.02155,0.01392 -0.02406,0.02785 -0.0028,0.01568 0.0046,0.03973 0.01777,0.05839 0.0068,0.0096 0.0213,0.02415 0.03731,0.03745 0.02057,0.01709 0.03333,0.02888 0.05423,0.0501 0.08756,0.08893 0.156482,0.193713 0.148926,0.226447 -0.002,0.0091 -0.0074,0.01282 -0.01858,0.01282 -0.0036,0 -0.0087,-6.07e-4 -0.01171,-0.0014 -0.03515,-0.0091 -0.09387,-0.0658 -0.162218,-0.15686 -0.0085,-0.0113 -0.01564,-0.02079 -0.01587,-0.02101 -0.0019,-0.002 0.0194,0.03541 0.03006,0.05254 0.04406,0.0707 0.09879,0.136775 0.159554,0.192629 0.01409,0.01296 0.01459,0.01322 0.03083,0.01666 0.03353,0.0071 0.06547,-9.77e-4 0.08467,-0.02129 0.0069,-0.0074 0.01,-0.01169 0.01453,-0.02133 0.01735,-0.03617 0.0083,-0.08202 -0.0277,-0.140605 -0.02759,-0.04487 -0.05858,-0.08381 -0.09835,-0.123632 -0.04194,-0.04201 -0.07541,-0.06674 -0.158546,-0.117227 -0.02803,-0.01702 -0.03657,-0.02266 -0.04264,-0.02811 -0.0069,-0.0063 -0.0085,-0.01084 -0.0053,-0.01554 0.0064,-0.009 0.02454,-0.0062 0.06138,0.0094 0.0217,0.0092 0.07601,0.0368 0.09366,0.04761 0.0359,0.02199 0.072,0.05125 0.109355,0.08867 0.09499,0.09518 0.151101,0.200971 0.140271,0.264468 -0.0064,0.03755 -0.03288,0.0708 -0.07201,0.09042 -0.01437,0.0072 -0.02616,0.01071 -0.04888,0.01446 l -0.0032,5.55e-4 0.01254,0.009 c 0.142109,0.101215 0.309254,0.159832 0.483678,0.169594 0.01802,9.78e-4 0.08044,0.001 0.09834,7.8e-5 z m -0.066,-0.280658 c -0.04474,-0.0083 -0.08337,-0.02483 -0.09541,-0.04078 -0.0047,-0.006 -0.0058,-0.0095 -0.0058,-0.0162 0,-0.0072 0.0017,-0.01107 0.0062,-0.01313 0.0038,-0.0018 0.0059,-0.0017 0.04768,0.0041 0.0392,0.0054 0.04395,0.0058 0.06598,0.0058 0.02198,0 0.0264,-3.89e-4 0.0664,-0.0058 0.04349,-0.0059 0.0433,-0.0059 0.04773,-0.004 0.0046,0.0019 0.0059,0.0053 0.0059,0.01319 3.8e-5,0.01613 -0.01801,0.0311 -0.05248,0.04353 -0.03481,0.01256 -0.06505,0.01722 -0.08619,0.01329 z m -0.063,-0.08295 c -0.03179,-0.0033 -0.05892,-0.01522 -0.08622,-0.03804 -0.01765,-0.01475 -0.02706,-0.03124 -0.03024,-0.05299 -0.0012,-0.0088 -6.51e-4,-0.02898 0.0012,-0.03876 0.0096,-0.04974 0.04598,-0.113598 0.100066,-0.175774 0.01488,-0.01709 0.04244,-0.04685 0.04992,-0.05388 0.03093,-0.02907 0.06205,-0.02894 0.09304,3.98e-4 0.0085,0.0082 0.04697,0.0504 0.06064,0.06681 0.0416,0.04986 0.07265,0.102908 0.08465,0.144601 0.0049,0.01696 0.0059,0.024 0.0059,0.04138 10e-6,0.01329 -2.59e-4,0.01661 -0.0018,0.02294 -0.005,0.01968 -0.01462,0.03388 -0.03298,0.04851 -0.02575,0.02051 -0.05202,0.03174 -0.08074,0.03453 -0.01684,0.0015 -0.0325,3.26e-4 -0.05224,-0.0045 -0.01005,-0.0022 -0.01085,-0.0027 -0.01363,-0.0057 -0.0079,-0.0087 -0.0072,-0.02852 0.0015,-0.04974 0.006,-0.01441 0.02071,-0.02648 0.04013,-0.03299 0.0035,-0.0011 0.01295,-0.0035 0.02126,-0.0051 0.0083,-0.0017 0.01752,-0.0039 0.02047,-0.0049 0.0074,-0.0026 0.01245,-0.0072 0.01609,-0.01505 0.0025,-0.0054 0.0029,-0.0069 0.0029,-0.01293 1.9e-5,-0.0062 -2.63e-4,-0.0073 -0.0031,-0.01323 -0.0041,-0.0083 -0.01084,-0.0157 -0.01675,-0.01829 -0.0038,-0.0015 -0.0058,-0.0019 -0.01282,-0.0018 -0.0071,1.2e-5 -0.01049,5.54e-4 -0.02163,0.0036 -0.01497,0.004 -0.02773,0.0087 -0.03637,0.01381 -0.01084,0.0064 -0.02648,0.01894 -0.02648,0.02136 0,0.0019 -0.0015,0.0012 -0.0053,-0.0027 -0.01,-0.01071 -0.03084,-0.02335 -0.04772,-0.02877 -0.02393,-0.0077 -0.039,-0.0093 -0.04798,-0.0051 -0.01165,0.0055 -0.02078,0.02096 -0.01988,0.03364 4.92e-4,0.0069 0.0045,0.01573 0.009,0.02013 0.0046,0.0044 0.01026,0.0063 0.02902,0.01005 0.01912,0.0039 0.02557,0.0057 0.03442,0.01016 0.0087,0.0044 0.01318,0.0077 0.0204,0.01526 0.0049,0.0053 0.0064,0.0073 0.0086,0.01323 0.0049,0.01262 0.0062,0.01874 0.0062,0.02976 7.6e-5,0.0094 -6.8e-5,0.01038 -0.0022,0.0149 -0.0012,0.0027 -0.0032,0.0056 -0.0045,0.0064 -0.0024,0.0018 -0.01274,0.0048 -0.02475,0.0069 -0.0085,0.0015 -0.0312,0.0027 -0.03823,0.0018 z m -0.162501,-0.09049 c -0.03839,-0.05743 -0.07644,-0.126096 -0.09745,-0.175887 -0.02218,-0.05255 -0.0291,-0.07348 -0.0371,-0.112211 -0.01187,-0.05747 -0.01774,-0.133674 -0.0127,-0.164581 0.0074,-0.04544 0.01918,-0.07082 0.03901,-0.08406 0.0157,-0.01049 0.03843,-0.01591 0.05798,-0.01376 0.0157,0.0017 0.0324,0.0083 0.04314,0.01698 0.0094,0.0076 0.01771,0.01866 0.03423,0.04541 0.01071,0.01745 0.01718,0.02593 0.02777,0.03656 0.01507,0.01512 0.0302,0.02588 0.05024,0.03574 0.0057,0.0028 0.01118,0.0055 0.01238,0.006 0.0024,0.0012 0.0046,0.0067 0.0059,0.01593 0.0013,0.0094 4.97e-4,0.03658 -0.0017,0.04938 -0.0053,0.02954 -0.01602,0.06338 -0.02951,0.09227 -0.0042,0.0088 -0.01376,0.02615 -0.02727,0.04896 -0.036,0.06077 -0.04968,0.09639 -0.05643,0.146777 -0.0015,0.01224 -0.0019,0.05186 -5.54e-4,0.06188 4.48e-4,0.0031 5.04e-4,0.0057 1.39e-4,0.0057 -3.7e-4,0 -0.0041,-0.005 -0.0082,-0.01118 z m 0.01567,-0.349906 c 1.46e-4,-1.29e-4 8.45e-4,-0.0037 0.0015,-0.0077 0.0027,-0.01512 2.43e-4,-0.03674 -0.0062,-0.05507 -0.01618,-0.04653 -0.05569,-0.08752 -0.08228,-0.08539 -0.0081,6.52e-4 -0.01308,0.0041 -0.02027,0.01336 -0.01624,0.0211 -0.0161,0.04763 3.63e-4,0.06422 0.0077,0.0077 0.01096,0.009 0.03919,0.01517 0.01471,0.0033 0.02223,0.0065 0.02911,0.01271 0.0017,0.0015 0.0071,0.0091 0.0117,0.0165 0.01005,0.01602 0.01617,0.02397 0.02017,0.02598 0.0025,0.0012 0.0053,0.0012 0.0066,1.95e-4 z m 0.460271,0.359573 c 2.44e-4,-8.48e-4 8.45e-4,-0.0081 0.0013,-0.01618 0.0028,-0.04272 -0.0056,-0.0889 -0.02409,-0.132226 -0.0083,-0.01942 -0.01613,-0.03429 -0.03522,-0.06657 -0.0053,-0.0087 -0.01154,-0.01957 -0.01408,-0.02396 -0.02152,-0.037 -0.03791,-0.08493 -0.04313,-0.12604 -0.0024,-0.01961 -9.76e-4,-0.04376 0.0032,-0.05194 7.16e-4,-0.0013 0.0039,-0.0032 0.0097,-0.0059 0.0202,-0.0092 0.03934,-0.0225 0.05506,-0.03828 0.01085,-0.01096 0.01793,-0.02037 0.03237,-0.04335 0.0113,-0.01802 0.0165,-0.0251 0.02382,-0.03264 0.0096,-0.01 0.01773,-0.01487 0.03169,-0.01931 0.02194,-0.0069 0.04556,-0.005 0.06763,0.0057 0.02521,0.01225 0.04031,0.04082 0.04698,0.08896 0.0024,0.01744 0.0017,0.05763 -0.0017,0.09181 -0.0057,0.0578 -0.02001,0.118888 -0.03649,0.155924 -9.77e-4,0.0022 -0.0046,0.0106 -0.0076,0.01849 -0.0211,0.05289 -0.05747,0.120143 -0.09811,0.181353 -0.0094,0.0142 -0.01296,0.01853 -0.01168,0.0143 z m -0.0017,-0.359422 c 0.0015,-6.04e-4 0.0042,-0.0028 0.0059,-0.0048 0.0031,-0.0036 0.01451,-0.02036 0.01946,-0.02888 0.0038,-0.0064 0.0097,-0.01184 0.01744,-0.01564 0.0067,-0.0032 0.01286,-0.0051 0.03352,-0.0095 0.0123,-0.0027 0.01792,-0.0053 0.02406,-0.01143 0.01459,-0.01437 0.01734,-0.03445 0.0074,-0.0544 -0.0042,-0.0085 -0.0119,-0.01761 -0.01787,-0.0211 -0.0123,-0.0072 -0.03103,-3.29e-4 -0.05061,0.01855 -0.02547,0.02456 -0.04337,0.05985 -0.04724,0.09303 -0.0015,0.01396 2.79e-4,0.03384 0.0035,0.03466 7.8e-4,2.01e-4 0.0013,4.08e-4 0.0015,4.62e-4 1.3e-4,5.3e-5 0.0014,-4.13e-4 0.0029,-0.001 z m -0.670467,0.293311 c -0.0083,-0.01016 -0.01918,-0.02875 -0.02537,-0.04337 -0.0042,-0.0097 -0.0096,-0.02698 -0.01299,-0.04073 -0.0063,-0.02572 -0.01,-0.05117 -0.0143,-0.101326 -0.0031,-0.03656 -0.0047,-0.04912 -0.0072,-0.06177 -0.0088,-0.0434 -0.02774,-0.08696 -0.04502,-0.103448 -0.0097,-0.0094 -0.02046,-0.01544 -0.04359,-0.02475 -0.02658,-0.01071 -0.03383,-0.01493 -0.0546,-0.03161 -0.02492,-0.02001 -0.04073,-0.03879 -0.04545,-0.05398 -0.0046,-0.01462 2.83e-4,-0.03494 0.01142,-0.04796 0.01085,-0.0127 0.02547,-0.02107 0.05242,-0.03002 0.03891,-0.01292 0.07151,-0.01651 0.102058,-0.01131 0.01165,0.0019 0.0206,0.0047 0.03702,0.0106 0.0133,0.0049 0.02331,0.0081 0.02385,0.0074 1.8e-4,-1.8e-4 -9.77e-4,-0.0021 -0.0027,-0.0046 -0.01418,-0.01972 -0.01685,-0.05213 -0.0057,-0.07057 0.0085,-0.01415 0.02071,-0.02032 0.04031,-0.02038 0.03334,-9.3e-5 0.04576,0.02472 0.03481,0.06951 -0.0036,0.01425 -0.0077,0.02538 -0.01618,0.04255 -0.01496,0.03035 -0.02599,0.04285 -0.04211,0.04777 -0.0049,0.0015 -0.0072,0.0017 -0.01516,0.0013 -0.01546,-7.17e-4 -0.02426,-0.0047 -0.03872,-0.01711 -0.0144,-0.01245 -0.01905,-0.01557 -0.02972,-0.01985 -0.0138,-0.0055 -0.02803,-0.0072 -0.04304,-0.0053 -0.03458,0.0046 -0.05736,0.01298 -0.06268,0.02324 -0.0022,0.0045 -9.77e-4,0.01359 0.0031,0.0224 0.0073,0.01567 0.02411,0.02754 0.05463,0.03877 0.0171,0.0063 0.02447,0.0074 0.05357,0.009 0.03014,0.0013 0.03533,0.0021 0.04706,0.0068 0.01486,0.0058 0.02822,0.01891 0.036,0.03524 0.0027,0.0057 0.0031,0.0076 0.0035,0.01379 2.28e-4,0.0054 -8.7e-5,0.0084 -0.0012,0.01182 -0.0022,0.0068 -0.0035,0.0072 -0.02424,0.0079 -0.0095,3.38e-4 -0.01819,8.47e-4 -0.01932,0.0011 -0.0019,5.55e-4 -0.0019,6.52e-4 0.0036,0.009 0.01677,0.02552 0.0284,0.05977 0.0313,0.09203 4.77e-4,0.0053 0.0011,0.01811 0.0013,0.02842 8.46e-4,0.03335 0.0037,0.06227 0.01096,0.114471 0.0083,0.05893 0.0094,0.0717 0.0081,0.08685 -0.0011,0.01207 -0.0015,0.01257 -0.0054,0.0078 z m 0.883394,0.0029 c -0.0012,-0.0035 -0.0021,-0.01321 -0.0021,-0.0225 -8e-6,-0.0134 0.0013,-0.02729 0.0076,-0.07037 0.0083,-0.05895 0.01096,-0.086 0.01257,-0.129446 9.11e-4,-0.02474 0.0021,-0.03412 0.0067,-0.05211 0.0056,-0.02157 0.01453,-0.04223 0.02564,-0.05873 l 0.0054,-0.0079 -0.0031,-4.75e-4 c -0.0017,-2.6e-4 -0.0106,-7.8e-4 -0.01973,-0.001 -0.01988,-7.17e-4 -0.02126,-0.0011 -0.02352,-0.0074 -0.0022,-0.0064 -0.0015,-0.01676 0.0017,-0.02452 0.0074,-0.01761 0.02268,-0.03208 0.04023,-0.03812 0.0088,-0.003 0.01839,-0.0042 0.04336,-0.0055 0.02921,-0.0013 0.03652,-0.0027 0.05351,-0.009 0.0237,-0.0088 0.03712,-0.01651 0.04655,-0.0267 0.0078,-0.0084 0.01326,-0.02054 0.01326,-0.0293 0,-0.01276 -0.02343,-0.02306 -0.06463,-0.02842 -0.01239,-0.0015 -0.01948,-0.0011 -0.03224,0.002 -0.01453,0.0038 -0.02373,0.009 -0.03947,0.02224 -0.016,0.01357 -0.02417,0.01724 -0.03988,0.01796 -0.0079,3.56e-4 -0.01026,1.48e-4 -0.01512,-0.0014 -0.0169,-0.0051 -0.02808,-0.01857 -0.04402,-0.05289 -0.02298,-0.04945 -0.02339,-0.08998 -9.77e-4,-0.102162 0.0068,-0.0038 0.01432,-0.0051 0.0254,-0.0046 0.01202,5.54e-4 0.01905,0.0027 0.02582,0.0076 0.0077,0.0057 0.01309,0.01402 0.01628,0.02532 0.0018,0.0064 0.0015,0.02702 -3.78e-4,0.03404 -0.0018,0.0071 -0.0072,0.01835 -0.01107,0.02371 -0.0017,0.0022 -0.0029,0.0044 -0.0027,0.0046 6.05e-4,6.04e-4 0.0097,-0.0021 0.02313,-0.0071 0.02349,-0.0087 0.03918,-0.01216 0.05943,-0.01314 0.02445,-0.0012 0.04938,0.003 0.08219,0.01395 0.02991,0.01 0.04514,0.0196 0.05525,0.03497 0.0078,0.01189 0.0113,0.02918 0.0081,0.04026 -0.0056,0.01929 -0.02383,0.03989 -0.05769,0.06515 -0.01118,0.0083 -0.02253,0.01437 -0.04113,0.02182 -0.02609,0.01049 -0.03655,0.01652 -0.04674,0.02705 -0.01572,0.01623 -0.03111,0.04936 -0.04031,0.08674 -0.0053,0.02115 -0.0062,0.02842 -0.01171,0.08796 -0.0047,0.05007 -0.0097,0.08068 -0.0182,0.108015 -0.0062,0.02018 -0.0158,0.04095 -0.02597,0.05603 -0.0078,0.01154 -0.0106,0.01497 -0.0113,0.01331 z"
       id="path1082"
       sodipodi:insensitive="true" />
    <text
       xml:space="preserve"
       id="text1098"
       style="font-style:normal;font-weight:normal;font-size:1px;line-height:1.25;font-family:sans-serif;white-space:pre;shape-inside:url(#rect1100);fill:#000000;fill-opacity:1;stroke:none;"><tspan
         style="visibility:hidden"
         x="2"
         y="15.91233"><tspan
           dx="0 0.60302734 0.42675781 0.60693359 0.34423828 0.59570312 0.52099609 0.39404297 0.3515625 0.74804688 0.60058594 0.97265625"
           style="font-size:1px">Project Name</tspan></tspan></text>
    <text
       xml:space="preserve"
       id="text1215"
       style="font-style:normal;font-weight:normal;font-size:0.649045px;line-height:1.25;font-family:sans-serif;white-space:pre;shape-inside:url(#rect1217);fill:#000000;fill-opacity:1;stroke:none;"
       transform="matrix(0.6419692,0,0,0.6419692,0.53773802,5.0070247)" />
    <text
       xml:space="preserve"
       id="text1199"
       style="fill:black;fill-opacity:1;line-height:1.25;stroke:none;font-family:sans-serif;font-style:normal;font-weight:normal;font-size:0.41666667px;white-space:pre;shape-inside:url(#rect1201);" />
    <g
       id="g1464"
       sodipodi:insensitive="true">
      <g
         id="g1411">
        <rect
           style="fill:none;stroke:#000000;stroke-width:0.1;stroke-miterlimit:4;stroke-dasharray:none;stroke-opacity:1"
           id="rect840-4"
           width="8.9982033"
           height="3.870362"
           x="1"
           y="0.5"
           ry="0.64506024" />
        <text
           xml:space="preserve"
           id="text1104-3-4"
           style="font-style:normal;font-variant:normal;font-weight:normal;font-stretch:normal;font-size:0.432696px;line-height:1.25;font-family:Ubuntu;-inkscape-font-specification:Ubuntu;white-space:pre;shape-inside:url(#rect1106-8-6);fill:#000000;fill-opacity:1;stroke:none;"
           transform="matrix(0,-0.6419692,0.6419692,0,-4.0090446,7.6150879)"><tspan
             x="7.5"
             y="21.403486"><tspan
               style="font-style:normal;font-variant:normal;font-weight:bold;font-stretch:normal;font-size:0.432696px;font-family:Ubuntu;-inkscape-font-specification:Ubuntu">Slot 1
</tspan></tspan></text>
      </g>
      <g
         id="g1417">
        <rect
           style="fill:none;stroke:#000000;stroke-width:0.1;stroke-miterlimit:4;stroke-dasharray:none;stroke-opacity:1"
           id="rect840-4-1"
           width="8.9982033"
           height="3.8703618"
           x="1.0035446"
           y="4.8863673"
           ry="0.64506018" />
        <text
           xml:space="preserve"
           id="text1104-3-4-08"
           style="font-style:normal;font-variant:normal;font-weight:normal;font-stretch:normal;font-size:0.432696px;line-height:1.25;font-family:Ubuntu;-inkscape-font-specification:Ubuntu;white-space:pre;shape-inside:url(#rect1106-8-6-2);fill:#000000;fill-opacity:1;stroke:none;"
           transform="matrix(0,-0.6419692,0.6419692,0,-4.0263334,12.017288)"><tspan
             x="7.5"
             y="21.403486"><tspan
               style="font-style:normal;font-variant:normal;font-weight:bold;font-stretch:normal;font-size:0.432696px;font-family:Ubuntu;-inkscape-font-specification:Ubuntu">Slot 2
</tspan></tspan></text>
      </g>
      <g
         id="g1423">
        <rect
           style="fill:none;stroke:#000000;stroke-width:0.1;stroke-miterlimit:4;stroke-dasharray:none;stroke-opacity:1"
           id="rect840-4-4"
           width="8.9982033"
           height="3.8703618"
           x="1.0035443"
           y="9.2580032"
           ry="0.64506018" />
        <text
           xml:space="preserve"
           id="text1104-3-4-9"
           style="font-style:normal;font-variant:normal;font-weight:normal;font-stretch:normal;font-size:0.432696px;line-height:1.25;font-family:Ubuntu;-inkscape-font-specification:Ubuntu;white-space:pre;shape-inside:url(#rect1106-8-6-27);fill:#000000;fill-opacity:1;stroke:none;"
           transform="matrix(0,-0.6419692,0.6419692,0,-4.0266114,16.387258)"><tspan
             x="7.5"
             y="21.403486"><tspan
               style="font-style:normal;font-variant:normal;font-weight:bold;font-stretch:normal;font-size:0.432696px;font-family:Ubuntu;-inkscape-font-specification:Ubuntu">Slot 3
</tspan></tspan></text>
      </g>
      <g
         id="g1436">
        <rect
           style="fill:none;fill-opacity:1;stroke:#000000;stroke-width:0.1;stroke-miterlimit:4;stroke-dasharray:none;stroke-opacity:1"
           id="rect840-4-7"
           width="8.9982033"
           height="3.8703618"
           x="1.0035442"
           y="13.629638"
           ry="0.64506018" />
        <g
           id="g1406"
           transform="translate(0,-0.04513666)">
          <text
             xml:space="preserve"
             id="text1104-3"
             style="font-style:normal;font-weight:normal;font-size:0.432696px;line-height:1.25;font-family:sans-serif;white-space:pre;shape-inside:url(#rect1106-8);fill:#000000;fill-opacity:1;stroke:none;"
             transform="matrix(0.6419692,0,0,0.6419692,-3.3068598,0.49348755)"><tspan
               x="7.5"
               y="21.403486"><tspan
                 style="font-style:normal;font-variant:normal;font-weight:bold;font-stretch:normal;font-size:0.432696px;font-family:Ubuntu;-inkscape-font-specification:Ubuntu">Project Name:
</tspan></tspan></text>
          <text
             xml:space="preserve"
             id="text1104-3-5"
             style="font-style:normal;font-weight:normal;font-size:0.432696px;line-height:1.25;font-family:sans-serif;white-space:pre;shape-inside:url(#rect1106-8-8);fill:#000000;fill-opacity:1;stroke:none;"
             transform="matrix(0.6419692,0,0,0.6419692,-3.3197751,1.1293786)"><tspan
               x="7.5"
               y="21.403486"><tspan
                 style="font-style:normal;font-variant:normal;font-weight:bold;font-stretch:normal;font-size:0.432696px;font-family:Ubuntu;-inkscape-font-specification:'Ubuntu Bold'">Date:</tspan></tspan></text>
          <text
             xml:space="preserve"
             id="text1104-3-1"
             style="font-style:normal;font-weight:normal;font-size:0.432696px;line-height:1.25;font-family:sans-serif;white-space:pre;shape-inside:url(#rect1106-8-3);fill:#000000;fill-opacity:1;stroke:none;"
             transform="matrix(0.6419692,0,0,0.6419692,-3.3087591,1.7774256)"><tspan
               x="7.5"
               y="21.403486"><tspan
                 style="font-style:normal;font-variant:normal;font-weight:bold;font-stretch:normal;font-size:0.432696px;font-family:Ubuntu;-inkscape-font-specification:'Ubuntu Bold'">Contributors:</tspan></tspan></text>
        </g>
        <text
           xml:space="preserve"
           id="text1104-3-4-2"
           style="font-style:normal;font-variant:normal;font-weight:normal;font-stretch:normal;font-size:0.432696px;line-height:1.25;font-family:Ubuntu;-inkscape-font-specification:Ubuntu;white-space:pre;shape-inside:url(#rect1106-8-6-8);fill:#000000;fill-opacity:1;stroke:none;"
           transform="matrix(0,-0.6419692,0.6419692,0,-4.0263337,20.763614)"><tspan
             x="7.5"
             y="21.403486"><tspan
               style="font-style:normal;font-variant:normal;font-weight:bold;font-stretch:normal;font-size:0.432696px;font-family:Ubuntu;-inkscape-font-specification:Ubuntu">Slot 4
</tspan></tspan></text>
      </g>
    </g>
    <circle
       style="fill:none;stroke:#ff0000;stroke-width:0.00104167;stroke-miterlimit:4;stroke-dasharray:none;stroke-opacity:1"
       id="path102"
       cx="1.15"
       cy="1.15"
       r="0.14968815"
       sodipodi:insensitive="true" />
    <circle
       style="fill:none;stroke:#ff0000;stroke-width:0.00104167;stroke-miterlimit:4;stroke-dasharray:none;stroke-opacity:1"
       id="path102-0"
       cx="1.150209"
       cy="17.150209"
       r="0.14968815"
       sodipodi:insensitive="true" />
    <circle
       style="fill:none;stroke:#ff0000;stroke-width:0.00104167;stroke-miterlimit:4;stroke-dasharray:none;stroke-opacity:1"
       id="path102-0-8"
       cx="23.150209"
       cy="17.150209"
       r="0.14968815"
       sodipodi:insensitive="true" />
    <circle
       style="fill:none;stroke:#ff0000;stroke-width:0.00104167;stroke-miterlimit:4;stroke-dasharray:none;stroke-opacity:1"
       id="path102-0-8-3"
       cx="23.150209"
       cy="1.150209"
       r="0.14968815"
       sodipodi:insensitive="true" />
    <g
       id="g1011"
       sodipodi:insensitive="true">
      <g
         id="g997">
        <g
           id="g898-1-9"
           transform="matrix(1.2570168,0,0,1.1692155,12.047278,-10.48386)"
           style="fill:none;stroke:#000000;stroke-width:0.0824864;stroke-miterlimit:4;stroke-dasharray:none;stroke-opacity:1">
          <rect
             style="fill:none;stroke:#000000;stroke-width:0.0824864;stroke-miterlimit:4;stroke-dasharray:none;stroke-opacity:1"
             id="rect840-4-4-5-7"
             width="7.9801011"
             height="6.8154669"
             x="0.72486717"
             y="9.3942137"
             ry="0.45436445" />
        </g>
        <text
           xml:space="preserve"
           id="text1104-3-4-0"
           style="font-style:normal;font-variant:normal;font-weight:normal;font-stretch:normal;font-size:0.432696px;line-height:1.25;font-family:Ubuntu;-inkscape-font-specification:Ubuntu;white-space:pre;shape-inside:url(#rect1106-8-6-3);fill:#000000;fill-opacity:1;stroke:none;"
           transform="matrix(0,-0.6419692,0.6419692,0,8.9868041,9.9759478)"><tspan
             x="7.5"
             y="21.403486"><tspan
               style="font-style:normal;font-variant:normal;font-weight:bold;font-stretch:normal;font-size:0.432696px;font-family:Ubuntu;-inkscape-font-specification:Ubuntu">ECU Slot 1
</tspan></tspan></text>
      </g>
      <g
         id="g990">
        <g
           id="g898-1-9-4"
           transform="matrix(1.2570168,0,0,1.1692155,12.057708,-1.4526098)"
           style="fill:none;stroke:#000000;stroke-width:0.0824864;stroke-miterlimit:4;stroke-dasharray:none;stroke-opacity:1">
          <rect
             style="fill:none;stroke:#000000;stroke-width:0.0824864;stroke-miterlimit:4;stroke-dasharray:none;stroke-opacity:1"
             id="rect840-4-4-5-7-9"
             width="7.9801011"
             height="6.8154669"
             x="0.72486717"
             y="9.3942137"
             ry="0.45436445" />
        </g>
        <text
           xml:space="preserve"
           id="text1104-3-4-0-3"
           style="font-style:normal;font-variant:normal;font-weight:normal;font-stretch:normal;font-size:0.432696px;line-height:1.25;font-family:Ubuntu;-inkscape-font-specification:Ubuntu;white-space:pre;shape-inside:url(#rect1106-8-6-3-4);fill:#000000;fill-opacity:1;stroke:none;"
           transform="matrix(0,-0.6419692,0.6419692,0,8.9972344,19.007199)"><tspan
             x="7.5"
             y="21.403486"><tspan
               style="font-style:normal;font-variant:normal;font-weight:bold;font-stretch:normal;font-size:0.432696px;font-family:Ubuntu;-inkscape-font-specification:Ubuntu">ECU Slot 2
</tspan></tspan></text>
      </g>
    </g>
  </g>
</svg>
